<svg xmlns="http://www.w3.org/2000/svg" viewBox="0 0 400.09 150.93"><defs><style>.cls-1{fill:#fff;}</style></defs><g id="Layer_2" data-name="Layer 2"><g id="Layer_1-2" data-name="Layer 1"><path class="cls-1" d="M68.16,64.6a33.28,33.28,0,0,0,6.64-1Q82.65,61.39,86,56.21T89.4,42.86V16.07H74.58V39.81a30.16,30.16,0,0,1-.16,3A15.68,15.68,0,0,1,73.77,46a10.42,10.42,0,0,1-1.36,2.78,8.15,8.15,0,0,1-2.18,2.12,10.25,10.25,0,0,1-4.58,1.42q-2.61.22-7.08.22H29.41V16.07H14.49V61.16q0,5.34-1.8,7.74T6.75,71.3a17.46,17.46,0,0,1-2.39-.17c-.8-.11-1.64-.24-2.51-.38L0,82.41a33,33,0,0,0,4.47,1,38.06,38.06,0,0,0,6,.43,30.31,30.31,0,0,0,6.81-.76,14.84,14.84,0,0,0,6-2.89,15,15,0,0,0,4.3-5.83,26.22,26.22,0,0,0,1.85-9.58H60.53C63.44,64.76,66,64.7,68.16,64.6Z"/><path class="cls-1" d="M209.77,22.88a23.37,23.37,0,0,0-9.31-5.67,42.23,42.23,0,0,0-13.83-2,55.2,55.2,0,0,0-8.06.7A47.8,47.8,0,0,0,169,18.46l3.16,11.11a36.13,36.13,0,0,1,6.48-1.52,41.49,41.49,0,0,1,5.39-.44q8.72,0,13,3.38t4.24,9.91a23.63,23.63,0,0,1-.43,4.74,7.62,7.62,0,0,1-1.8,3.65,9,9,0,0,1-4,2.4,22.35,22.35,0,0,1-6.87.87H157a11.42,11.42,0,0,1-7.63-2.4,8.49,8.49,0,0,1-2.83-6.86V37a21.32,21.32,0,0,0-1.58-8.28,17.91,17.91,0,0,0-4.79-6.64A22.46,22.46,0,0,0,132,17.65a38.54,38.54,0,0,0-11.71-1.58H107v12.2H117.3c4.57,0,8.1,1,10.56,2.88s3.71,4.74,3.71,8.45v2.83c0,3.7-.82,6.32-2.45,7.84s-4.27,2.29-7.9,2.29H100.09v12.2H127a28,28,0,0,0,10.13-1.58,13.23,13.23,0,0,0,6.43-5.28A15.19,15.19,0,0,0,149.82,63a20.82,20.82,0,0,0,7.85,1.71l35.82,0q10.78,0,16.88-6t6.1-17.21a32.47,32.47,0,0,0-1.57-10.3A21.88,21.88,0,0,0,209.77,22.88Z"/><path class="cls-1" d="M13.91,131.26q-.09,4.71-2.11,6.57T5.66,139.7c-.7,0-1.6,0-2.69-.14s-2.07-.21-3-.34v11.23c1.09.13,2.33.24,3.74.34s2.79.14,4.13.14q10.26,0,15.16-4.51t4.89-13.82V91.86h-14Z"/><path class="cls-1" d="M168.66,73.36A7.67,7.67,0,0,0,163,75.54a7.56,7.56,0,0,0-2.18,5.56,7.48,7.48,0,0,0,7.84,7.84,7.34,7.34,0,0,0,5.51-2.18,7.78,7.78,0,0,0,2.12-5.66,7.68,7.68,0,0,0-2.12-5.56A7.38,7.38,0,0,0,168.66,73.36Z"/><rect class="cls-1" x="161.74" y="99.11" width="13.63" height="51.82"/><path class="cls-1" d="M137.44,102.21a25.91,25.91,0,1,0,0,45.63v3.09h13.63V125h0V91.86H137.44ZM125.16,137.3A12.28,12.28,0,1,1,137.44,125,12.28,12.28,0,0,1,125.16,137.3Z"/><path class="cls-1" d="M67.67,75.76a7.53,7.53,0,0,0-2.18,5.56,7.48,7.48,0,0,0,7.85,7.84A7.36,7.36,0,0,0,78.84,87,7.78,7.78,0,0,0,81,81.32a7.64,7.64,0,0,0-2.12-5.56,7.36,7.36,0,0,0-5.5-2.18A7.67,7.67,0,0,0,67.67,75.76Z"/><path class="cls-1" d="M54.06,73.58a7.67,7.67,0,0,0-5.67,2.18,7.53,7.53,0,0,0-2.18,5.56,7.48,7.48,0,0,0,7.85,7.84A7.37,7.37,0,0,0,59.56,87a7.78,7.78,0,0,0,2.12-5.66,7.64,7.64,0,0,0-2.12-5.56A7.37,7.37,0,0,0,54.06,73.58Z"/><path class="cls-1" d="M75.87,102.21a25.91,25.91,0,1,0,0,45.63v3.09H89.5V125h0V99.11H75.87ZM63.59,137.3A12.28,12.28,0,1,1,75.87,125,12.28,12.28,0,0,1,63.59,137.3Z"/><path class="cls-1" d="M199.66,102.2V99.11H186v51.82h13.62V125a12.29,12.29,0,0,1,16-11.7l.79-13.8a25,25,0,0,0-4.53-.41A25.83,25.83,0,0,0,199.66,102.2Z"/><path class="cls-1" d="M391.78.23,342.46,13.44a6.61,6.61,0,0,0-4.89,6.38v34.1a34.51,34.51,0,0,1-27.89,33.86v-56a6.6,6.6,0,0,0-8.31-6.38L252.05,38.56a6.61,6.61,0,0,0-4.89,6.38v7.37a49.31,49.31,0,0,0,49.31,49.31v42.71a6.6,6.6,0,0,0,6.61,6.6,96.6,96.6,0,0,0,37.76-7.62,97,97,0,0,0,59.25-89.39V6.61A6.6,6.6,0,0,0,391.78.23ZM260.37,52.31V50l36.1-9.67V88.41A36.1,36.1,0,0,1,260.37,52.31Zm126.51,1.61a83.78,83.78,0,0,1-77.2,83.55V101.15a47.67,47.67,0,0,0,41.1-47.23v-29l36.1-9.68Z"/></g></g></svg>